<svg xmlns="http://www.w3.org/2000/svg" xmlns:xlink="http://www.w3.org/1999/xlink" width="1000" zoomAndPan="magnify" viewBox="0 0 750 749.999995" height="1000" preserveAspectRatio="xMidYMid meet" version="1.0"><defs><g/><clipPath id="id1"><path d="M 106.835938 92.621094 L 642 92.621094 L 642 522.371094 L 106.835938 522.371094 Z M 106.835938 92.621094 " clip-rule="nonzero"/></clipPath></defs><path fill="#00bfb9" d="M 354.410156 444.585938 C 357.9375 444.585938 360.824219 441.699219 360.824219 438.136719 C 360.824219 434.570312 357.9375 431.683594 354.410156 431.683594 C 350.84375 431.683594 347.957031 434.570312 347.957031 438.136719 C 347.957031 441.699219 350.84375 444.585938 354.410156 444.585938 Z M 354.410156 444.585938 " fill-opacity="1" fill-rule="nonzero"/><path fill="#00bfb9" d="M 258.5 271.402344 L 331.398438 271.402344 C 333.742188 271.402344 335.644531 269.503906 335.644531 267.160156 L 335.644531 194.339844 C 335.644531 191.996094 333.742188 190.09375 331.398438 190.09375 L 258.5 190.09375 C 256.15625 190.09375 254.253906 191.996094 254.253906 194.339844 L 254.253906 267.160156 C 254.253906 269.503906 256.15625 271.402344 258.5 271.402344 Z M 262.742188 198.582031 L 327.152344 198.582031 L 327.152344 262.917969 L 262.742188 262.917969 Z M 262.742188 198.582031 " fill-opacity="1" fill-rule="nonzero"/><path fill="#00bfb9" d="M 316.707031 204.777344 L 273.1875 204.777344 C 270.84375 204.777344 268.941406 206.679688 268.941406 209.023438 L 268.941406 252.476562 C 268.941406 254.820312 270.84375 256.71875 273.1875 256.71875 L 316.707031 256.71875 C 319.050781 256.71875 320.953125 254.820312 320.953125 252.476562 L 320.953125 209.023438 C 320.953125 206.679688 319.050781 204.777344 316.707031 204.777344 Z M 316.707031 204.777344 " fill-opacity="1" fill-rule="nonzero"/><g clip-path="url(#id1)"><path fill="#00bfb9" d="M 626.230469 490.671875 L 624.148438 490.671875 L 624.148438 300.664062 C 630.578125 299.433594 636.054688 295.472656 639.238281 289.472656 C 643.105469 282.1875 642.652344 273.765625 638.019531 266.9375 L 568.515625 164.667969 C 567.726562 163.503906 566.410156 162.808594 565.003906 162.808594 L 364.171875 162.808594 L 314.957031 102.296875 C 310.035156 96.238281 302.742188 92.769531 294.949219 92.769531 C 287.152344 92.769531 279.863281 96.238281 274.949219 102.289062 L 118.871094 294.183594 C 114.898438 299.054688 114.113281 305.605469 116.820312 311.289062 C 119.523438 316.972656 125.101562 320.503906 131.378906 320.503906 C 133.113281 320.503906 134.777344 320.132812 136.386719 319.605469 L 136.386719 490.671875 L 122.417969 490.671875 C 113.828125 490.671875 106.835938 497.65625 106.835938 506.5 C 106.835938 515.085938 113.824219 522.074219 122.417969 522.074219 L 626.230469 522.074219 C 634.820312 522.074219 641.8125 515.089844 641.8125 506.246094 C 641.8125 497.65625 634.824219 490.671875 626.230469 490.671875 Z M 425.953125 490.671875 L 339.125 490.671875 L 339.125 366.289062 L 425.953125 366.289062 Z M 453.507812 490.671875 L 453.507812 319.617188 C 455.113281 320.136719 456.777344 320.503906 458.519531 320.503906 C 467.414062 320.503906 474.652344 313.230469 474.652344 304.292969 C 474.652344 303.207031 474.503906 302.144531 474.292969 301.109375 L 615.652344 301.109375 L 615.652344 490.671875 Z M 124.492188 307.648438 C 123.191406 304.910156 123.550781 301.886719 125.457031 299.542969 L 281.539062 107.644531 C 284.835938 103.585938 289.722656 101.253906 294.949219 101.253906 C 300.175781 101.253906 305.0625 103.585938 308.367188 107.644531 L 464.441406 299.542969 C 464.464844 299.570312 464.855469 300.136719 464.875 300.164062 C 465.71875 301.394531 466.167969 302.820312 466.167969 304.292969 C 466.167969 308.003906 463.246094 312.015625 458.523438 312.015625 C 456.1875 312.015625 454.019531 310.984375 452.5625 309.167969 L 298.226562 119.394531 C 297.417969 118.402344 296.210938 117.828125 294.933594 117.828125 C 293.652344 117.828125 292.445312 118.402344 291.636719 119.394531 L 137.34375 309.164062 C 135.855469 310.976562 133.683594 312.015625 131.378906 312.015625 C 128.363281 312.015625 125.789062 310.382812 124.492188 307.648438 Z M 144.878906 313.351562 L 294.925781 128.796875 L 445.019531 313.351562 L 445.019531 490.671875 L 434.445312 490.671875 L 434.445312 362.046875 C 434.445312 359.699219 432.542969 357.804688 430.199219 357.804688 L 334.878906 357.804688 C 332.539062 357.804688 330.636719 359.699219 330.636719 362.046875 L 330.636719 490.671875 L 144.878906 490.671875 Z M 144.878906 313.351562 " fill-opacity="1" fill-rule="nonzero"/></g><path fill="#00bfb9" d="M 602.835938 352.457031 L 466.800781 352.457031 C 464.457031 352.457031 462.554688 354.355469 462.554688 356.699219 L 462.554688 445.476562 C 462.554688 447.824219 464.457031 449.71875 466.800781 449.71875 L 602.835938 449.71875 C 605.179688 449.71875 607.082031 447.824219 607.082031 445.476562 L 607.082031 356.699219 C 607.082031 354.359375 605.179688 352.457031 602.835938 352.457031 Z M 598.589844 424.210938 L 539.0625 424.210938 L 539.0625 360.945312 L 598.589844 360.945312 Z M 530.570312 360.945312 L 530.570312 424.210938 L 471.046875 424.210938 L 471.046875 360.945312 Z M 530.570312 360.945312 " fill-opacity="1" fill-rule="nonzero"/><path fill="#00bfb9" d="M 306.347656 352.457031 L 170.3125 352.457031 C 167.96875 352.457031 166.066406 354.355469 166.066406 356.699219 L 166.066406 445.476562 C 166.066406 447.824219 167.96875 449.71875 170.3125 449.71875 L 306.347656 449.71875 C 308.691406 449.71875 310.59375 447.824219 310.59375 445.476562 L 310.59375 356.699219 C 310.59375 354.359375 308.691406 352.457031 306.347656 352.457031 Z M 302.101562 424.210938 L 242.578125 424.210938 L 242.578125 360.945312 L 302.101562 360.945312 Z M 234.085938 360.945312 L 234.085938 424.210938 L 174.558594 424.210938 L 174.558594 360.945312 Z M 234.085938 360.945312 " fill-opacity="1" fill-rule="nonzero"/><g fill="#00bfb9" fill-opacity="1"><g transform="translate(234.043641, 625.428278)"><g><path d="M 12.953125 -41.609375 L 12.953125 0 L 6.484375 0 L 6.484375 -50.40625 L 15.546875 -50.40625 L 37.796875 -8.5 L 37.796875 -50.40625 L 44.28125 -50.40625 L 44.28125 0 L 35.359375 0 Z M 12.953125 -41.609375 "/></g></g></g><g fill="#00bfb9" fill-opacity="1"><g transform="translate(284.795416, 625.428278)"><g><path d="M 33.546875 -18.71875 C 33.546875 -20.59375 33.242188 -22.367188 32.640625 -24.046875 C 32.046875 -25.722656 31.207031 -27.1875 30.125 -28.4375 C 29.050781 -29.6875 27.78125 -30.679688 26.3125 -31.421875 C 24.851562 -32.171875 23.257812 -32.546875 21.53125 -32.546875 C 17.738281 -32.546875 14.785156 -31.296875 12.671875 -28.796875 C 10.554688 -26.304688 9.5 -22.992188 9.5 -18.859375 C 9.5 -16.992188 9.796875 -15.207031 10.390625 -13.5 C 10.992188 -11.789062 11.835938 -10.300781 12.921875 -9.03125 C 14.003906 -7.757812 15.273438 -6.75 16.734375 -6 C 18.203125 -5.257812 19.800781 -4.890625 21.53125 -4.890625 C 23.40625 -4.890625 25.082031 -5.222656 26.5625 -5.890625 C 28.050781 -6.566406 29.3125 -7.515625 30.34375 -8.734375 C 31.375 -9.960938 32.164062 -11.414062 32.71875 -13.09375 C 33.269531 -14.78125 33.546875 -16.65625 33.546875 -18.71875 Z M 2.875 -18.71875 C 2.875 -21.738281 3.351562 -24.460938 4.3125 -26.890625 C 5.28125 -29.316406 6.59375 -31.367188 8.25 -33.046875 C 9.90625 -34.722656 11.867188 -36.015625 14.140625 -36.921875 C 16.421875 -37.835938 18.882812 -38.296875 21.53125 -38.296875 C 24.125 -38.296875 26.554688 -37.835938 28.828125 -36.921875 C 31.109375 -36.015625 33.085938 -34.722656 34.765625 -33.046875 C 36.453125 -31.367188 37.773438 -29.328125 38.734375 -26.921875 C 39.691406 -24.523438 40.171875 -21.835938 40.171875 -18.859375 C 40.171875 -15.890625 39.703125 -13.191406 38.765625 -10.765625 C 37.835938 -8.335938 36.53125 -6.257812 34.84375 -4.53125 C 33.164062 -2.800781 31.1875 -1.46875 28.90625 -0.53125 C 26.625 0.394531 24.164062 0.859375 21.53125 0.859375 C 18.84375 0.859375 16.359375 0.378906 14.078125 -0.578125 C 11.796875 -1.535156 9.828125 -2.878906 8.171875 -4.609375 C 6.515625 -6.335938 5.21875 -8.398438 4.28125 -10.796875 C 3.34375 -13.203125 2.875 -15.84375 2.875 -18.71875 Z M 2.875 -18.71875 "/></g></g></g><g fill="#00bfb9" fill-opacity="1"><g transform="translate(327.844448, 625.428278)"><g/></g></g><g fill="#00bfb9" fill-opacity="1"><g transform="translate(349.440947, 625.428278)"><g><path d="M 6.484375 -50.25 C 8.734375 -50.488281 10.9375 -50.664062 13.09375 -50.78125 C 15.257812 -50.90625 17.734375 -50.96875 20.515625 -50.96875 C 24.835938 -50.96875 28.554688 -50.296875 31.671875 -48.953125 C 34.796875 -47.609375 37.390625 -45.757812 39.453125 -43.40625 C 41.515625 -41.0625 43.035156 -38.328125 44.015625 -35.203125 C 45.003906 -32.085938 45.5 -28.773438 45.5 -25.265625 C 45.5 -21.765625 44.992188 -18.441406 43.984375 -15.296875 C 42.984375 -12.148438 41.4375 -9.398438 39.34375 -7.046875 C 37.257812 -4.703125 34.597656 -2.84375 31.359375 -1.46875 C 28.117188 -0.101562 24.242188 0.578125 19.734375 0.578125 C 16.992188 0.578125 14.601562 0.515625 12.5625 0.390625 C 10.519531 0.273438 8.492188 0.0976562 6.484375 -0.140625 Z M 20.296875 -45.078125 C 18.910156 -45.078125 17.640625 -45.039062 16.484375 -44.96875 C 15.335938 -44.894531 14.28125 -44.8125 13.3125 -44.71875 L 13.3125 -5.765625 C 14.320312 -5.617188 15.378906 -5.519531 16.484375 -5.46875 C 17.585938 -5.425781 18.738281 -5.40625 19.9375 -5.40625 C 23.15625 -5.40625 25.941406 -5.894531 28.296875 -6.875 C 30.648438 -7.863281 32.582031 -9.234375 34.09375 -10.984375 C 35.601562 -12.734375 36.71875 -14.816406 37.4375 -17.234375 C 38.15625 -19.660156 38.515625 -22.335938 38.515625 -25.265625 C 38.515625 -27.859375 38.15625 -30.34375 37.4375 -32.71875 C 36.71875 -35.09375 35.613281 -37.203125 34.125 -39.046875 C 32.632812 -40.898438 30.738281 -42.367188 28.4375 -43.453125 C 26.132812 -44.535156 23.421875 -45.078125 20.296875 -45.078125 Z M 20.296875 -45.078125 "/></g></g></g><g fill="#00bfb9" fill-opacity="1"><g transform="translate(398.536991, 625.428278)"><g><path d="M 3.234375 -18.5 C 3.234375 -21.289062 3.664062 -23.894531 4.53125 -26.3125 C 5.394531 -28.738281 6.609375 -30.835938 8.171875 -32.609375 C 9.734375 -34.390625 11.601562 -35.78125 13.78125 -36.78125 C 15.96875 -37.789062 18.359375 -38.296875 20.953125 -38.296875 C 23.109375 -38.296875 25.0625 -37.925781 26.8125 -37.1875 C 28.570312 -36.445312 30.097656 -35.523438 31.390625 -34.421875 L 31.390625 -37.4375 L 37.296875 -37.4375 L 37.296875 -9.078125 C 37.296875 -7.253906 37.738281 -6.066406 38.625 -5.515625 C 39.507812 -4.960938 40.484375 -4.6875 41.546875 -4.6875 L 40.171875 0.359375 C 35.566406 0.359375 32.785156 -1.507812 31.828125 -5.25 C 31.242188 -4.488281 30.582031 -3.734375 29.84375 -2.984375 C 29.101562 -2.242188 28.25 -1.582031 27.28125 -1 C 26.320312 -0.425781 25.242188 0.0234375 24.046875 0.359375 C 22.847656 0.691406 21.53125 0.859375 20.09375 0.859375 C 17.738281 0.859375 15.539062 0.40625 13.5 -0.5 C 11.457031 -1.414062 9.679688 -2.710938 8.171875 -4.390625 C 6.660156 -6.066406 5.457031 -8.09375 4.5625 -10.46875 C 3.675781 -12.851562 3.234375 -15.53125 3.234375 -18.5 Z M 21.53125 -4.890625 C 23.351562 -4.890625 25.078125 -5.320312 26.703125 -6.1875 C 28.335938 -7.050781 29.707031 -8.179688 30.8125 -9.578125 L 30.8125 -29.65625 C 29.519531 -30.570312 28.09375 -31.304688 26.53125 -31.859375 C 24.96875 -32.410156 23.320312 -32.6875 21.59375 -32.6875 C 19.875 -32.6875 18.289062 -32.347656 16.84375 -31.671875 C 15.40625 -31.003906 14.171875 -30.054688 13.140625 -28.828125 C 12.109375 -27.609375 11.300781 -26.132812 10.71875 -24.40625 C 10.144531 -22.675781 9.859375 -20.78125 9.859375 -18.71875 C 9.859375 -16.707031 10.144531 -14.847656 10.71875 -13.140625 C 11.300781 -11.429688 12.117188 -9.960938 13.171875 -8.734375 C 14.234375 -7.515625 15.472656 -6.566406 16.890625 -5.890625 C 18.304688 -5.222656 19.851562 -4.890625 21.53125 -4.890625 Z M 21.53125 -4.890625 "/></g></g></g><g fill="#00bfb9" fill-opacity="1"><g transform="translate(442.953787, 625.428278)"><g><path d="M 8.71875 -47.875 L 13.6875 -47.875 L 13.6875 -36.078125 L 24.046875 -36.078125 L 24.046875 -30.453125 L 13.6875 -30.453125 L 13.6875 -12.390625 C 13.6875 -10.992188 13.835938 -9.816406 14.140625 -8.859375 C 14.453125 -7.898438 14.875 -7.128906 15.40625 -6.546875 C 15.9375 -5.972656 16.570312 -5.550781 17.3125 -5.28125 C 18.0625 -5.019531 18.84375 -4.890625 19.65625 -4.890625 C 20.851562 -4.890625 21.976562 -5.082031 23.03125 -5.46875 C 24.09375 -5.851562 25.101562 -6.3125 26.0625 -6.84375 L 27.859375 -1.65625 C 26.898438 -1.082031 25.601562 -0.519531 23.96875 0.03125 C 22.34375 0.582031 20.640625 0.859375 18.859375 0.859375 C 15.265625 0.859375 12.421875 -0.3125 10.328125 -2.65625 C 8.242188 -5.007812 7.203125 -8.421875 7.203125 -12.890625 L 7.203125 -30.453125 L 0.71875 -30.453125 L 0.71875 -36.078125 L 7.34375 -36.078125 Z M 8.71875 -47.875 "/></g></g></g><g fill="#00bfb9" fill-opacity="1"><g transform="translate(471.533162, 625.428278)"><g><path d="M 3.234375 -18.5 C 3.234375 -21.289062 3.664062 -23.894531 4.53125 -26.3125 C 5.394531 -28.738281 6.609375 -30.835938 8.171875 -32.609375 C 9.734375 -34.390625 11.601562 -35.78125 13.78125 -36.78125 C 15.96875 -37.789062 18.359375 -38.296875 20.953125 -38.296875 C 23.109375 -38.296875 25.0625 -37.925781 26.8125 -37.1875 C 28.570312 -36.445312 30.097656 -35.523438 31.390625 -34.421875 L 31.390625 -37.4375 L 37.296875 -37.4375 L 37.296875 -9.078125 C 37.296875 -7.253906 37.738281 -6.066406 38.625 -5.515625 C 39.507812 -4.960938 40.484375 -4.6875 41.546875 -4.6875 L 40.171875 0.359375 C 35.566406 0.359375 32.785156 -1.507812 31.828125 -5.25 C 31.242188 -4.488281 30.582031 -3.734375 29.84375 -2.984375 C 29.101562 -2.242188 28.25 -1.582031 27.28125 -1 C 26.320312 -0.425781 25.242188 0.0234375 24.046875 0.359375 C 22.847656 0.691406 21.53125 0.859375 20.09375 0.859375 C 17.738281 0.859375 15.539062 0.40625 13.5 -0.5 C 11.457031 -1.414062 9.679688 -2.710938 8.171875 -4.390625 C 6.660156 -6.066406 5.457031 -8.09375 4.5625 -10.46875 C 3.675781 -12.851562 3.234375 -15.53125 3.234375 -18.5 Z M 21.53125 -4.890625 C 23.351562 -4.890625 25.078125 -5.320312 26.703125 -6.1875 C 28.335938 -7.050781 29.707031 -8.179688 30.8125 -9.578125 L 30.8125 -29.65625 C 29.519531 -30.570312 28.09375 -31.304688 26.53125 -31.859375 C 24.96875 -32.410156 23.320312 -32.6875 21.59375 -32.6875 C 19.875 -32.6875 18.289062 -32.347656 16.84375 -31.671875 C 15.40625 -31.003906 14.171875 -30.054688 13.140625 -28.828125 C 12.109375 -27.609375 11.300781 -26.132812 10.71875 -24.40625 C 10.144531 -22.675781 9.859375 -20.78125 9.859375 -18.71875 C 9.859375 -16.707031 10.144531 -14.847656 10.71875 -13.140625 C 11.300781 -11.429688 12.117188 -9.960938 13.171875 -8.734375 C 14.234375 -7.515625 15.472656 -6.566406 16.890625 -5.890625 C 18.304688 -5.222656 19.851562 -4.890625 21.53125 -4.890625 Z M 21.53125 -4.890625 "/></g></g></g></svg>