<svg width="358" height="362" viewBox="0 0 358 362" fill="none" xmlns="http://www.w3.org/2000/svg">
<path d="M181.513 119.948H200.85V96.3999H181.513V119.948Z" fill="#00BFB9"/>
<path d="M176.998 119.948V96.3999H157.651V119.948H176.998Z" fill="#00BFB9"/>
<path d="M176.998 125.436H157.651V148.985H176.998V125.436Z" fill="#00BFB9"/>
<path d="M181.513 125.436V148.985H200.85V125.436H181.513Z" fill="#00BFB9"/>
<path d="M294.165 227.806C295.393 222.47 298.087 211.811 298.087 211.811C195.868 201.329 178.954 257.793 178.954 257.793C202.681 220.759 276.326 225.955 294.165 227.806Z" fill="#00DDD6"/>
<path d="M64.149 225.651C62.984 220.289 60.4252 209.592 60.4252 209.592C162.769 201.012 178.954 257.792 178.954 257.792C155.706 220.315 82.009 224.13 64.149 225.651Z" fill="#00DDD6"/>
<path d="M273.382 178.794L270.126 195.524C239.867 199.149 196.814 209.377 181.815 238.211C181.815 238.211 191.915 189.263 273.382 178.794Z" fill="#00DDD6"/>
<path d="M84.5262 178.794L87.7924 195.524C118.051 199.149 161.105 209.377 176.094 238.211C176.094 238.211 166.004 189.263 84.5262 178.794Z" fill="#00DDD6"/>
<path d="M286.728 75.538L179.256 0L71.784 75.538V115.88L89.9145 103.13V170.581C101.18 172.28 111.103 174.713 119.841 177.666V82.1032L179.256 40.3418L238.671 82.1032V177.464C247.419 174.548 257.343 172.14 268.597 170.48V103.13L286.728 115.88V75.538Z" fill="#00BFB9"/>
<path d="M0 359.896H28.4907L32.2041 348.325H59.4986L63.212 359.896H91.7963L62.3487 284.143H30.3942L0 359.896ZM36.8745 330.429L45.8513 304.028H46.0282L54.8385 330.429H36.8745Z" fill="#00BFB9"/>
<path d="M133.057 362C157.761 362 173.385 350.847 173.302 334.649C173.302 320.226 163.805 313.078 141.701 310.657L131.507 309.605C124.163 308.857 120.97 307.704 121.053 305.917C121.147 303.078 127.013 301.608 135.22 301.494C144.114 301.392 154.568 303.914 162.338 308.439L168.725 289.187C160.008 284.561 147.567 281.925 134.96 281.925C110.61 281.925 94.3724 291.291 94.2892 308.338C94.2892 322.431 103.443 329.491 124.767 331.912L134.7 333.065C142.991 333.902 146.538 335.27 146.538 337.488C146.538 340.226 141.961 341.481 134.534 341.481C123.56 341.481 110.173 337.59 101.539 332.229L93.509 352.317C102.923 358.109 119.243 362 133.057 362Z" fill="#00BFB9"/>
<path d="M248.685 362C254.729 362 262.676 359.681 266.296 356.423L262.676 343.483C261.719 344.434 259.649 345.055 258.359 345.055C255.759 345.055 254.126 344.003 252.825 342.114L248.509 335.701C247.042 333.483 245.315 331.797 243.589 331.278V331.176C254.989 328.122 261.376 320.226 261.376 308.857C261.376 292.976 251.619 284.143 233.998 284.143H179.336V359.896H206.974V336.753H214.307C218.541 336.753 222.431 338.426 225.198 342.748L228.391 347.792C232.531 354.421 237.805 362 248.685 362ZM206.974 318.857V303.078H225.104C230.638 303.078 233.738 305.917 233.738 310.974C233.738 316.018 230.638 318.857 225.021 318.857H206.974Z" fill="#00BFB9"/>
<path d="M266.204 359.896H294.694L298.408 348.325H325.702L329.416 359.896H358L328.552 284.143H296.598L266.204 359.896ZM303.078 330.429L312.055 304.028H312.232L321.042 330.429H303.078Z" fill="#00BFB9"/>
</svg>
